<svg id="Capa_1" enable-background="new 0 0 512 512" height="512" viewBox="0 0 512 512" width="512" xmlns="http://www.w3.org/2000/svg"><g><path d="m449.533 275.44c-.432-12.122-5.739-23.192-14.944-31.173-5.179-4.489-11.459-7.705-18.158-9.3-3.932-.935-7.863 1.491-8.796 5.415-.934 3.924 1.49 7.863 5.414 8.797 4.422 1.052 8.562 3.171 11.972 6.127 12.504 10.336 13.253 30.725 1.549 41.918-4.833 4.833-11.242 7.78-18.045 8.298-10.124.771-19.29 5.861-25.148 13.963l-25.348 35.06-29.257-29.257 35.063-25.351c8.142-5.887 13.227-15.012 13.952-25.034.548-7.571 4.021-14.508 9.782-19.535 3.04-2.652 3.353-7.266.702-10.306-2.653-3.04-7.268-3.353-10.306-.701-8.683 7.576-13.92 18.049-14.748 29.488-.413 5.705-3.307 10.898-7.941 14.25l-36.966 26.726-20.865-20.864c-2.447-2.447-5.233-4.427-8.249-5.912l8.898-26.098c4.65-13.281 1.888-28.867-6.939-39.626 5.595-4.912 9.137-12.109 9.137-20.122v-51.128c0-14.767-12.015-26.781-26.781-26.781h-26.185c1.174-16.185-6.312-32.253-20.611-40.384l-13.383-7.768c-8.146-4.528-10.905-15.872-5.716-23.621l3.516-5.486c3.251-5.071 4.969-10.935 4.969-16.959v-13.033c0-9.398-7.646-17.043-17.043-17.043h-35.346c-9.397 0-17.043 7.645-17.043 17.043v13.033c0 6.023 1.718 11.888 4.969 16.959l3.516 5.485c5.19 7.75 2.43 19.092-5.716 23.621l-13.383 7.768c-14.3 8.131-21.785 24.199-20.611 40.384h-26.185c-14.767 0-26.781 12.014-26.781 26.781v51.128c0 8.019 3.548 15.222 9.151 20.134-5.902 7.351-9.189 16.517-9.189 26.128 0 4.597.752 9.134 2.236 13.485l19.732 57.872c1.928 5.656 1.928 11.886 0 17.542l-19.207 56.332c-1.832 5.373-2.761 10.976-2.761 16.653 0 23.629 19.223 42.853 42.852 42.853h68.178c3.217 13.303 10.005 25.91 20.37 36.276 14.66 14.658 34.489 22.523 54.655 22.523 8.819 0 17.705-1.505 26.247-4.604 3.792-1.375 5.751-5.565 4.376-9.356-1.375-3.792-5.56-5.751-9.357-4.376-22.768 8.258-48.514 2.559-65.591-14.517-24.364-24.365-24.364-64.008 0-88.373 12.719-12.719 29.843-19.169 47.634-18.156.494 5.413 2.378 10.718 5.641 15.342-2.964-.565-6.003-.861-9.089-.861-12.802 0-24.825 4.974-33.856 14.005-18.669 18.669-18.669 49.044 0 67.713 9.031 9.032 21.055 14.005 33.857 14.005s24.826-4.974 33.857-14.006c11.652-11.652 16.03-27.864 13.136-42.944 4.524 3.205 9.783 5.152 15.349 5.655.979 17.407-5.203 34.244-17.423 46.873-2.806 2.899-2.729 7.523.17 10.328 2.896 2.803 7.521 2.731 10.327-.17 15.381-15.896 23.037-37.178 21.449-59.094 4.449-1.718 8.489-4.586 11.832-8.132l8.42 8.42h.001c6.049 6.049 13.995 9.073 21.94 9.073 7.946 0 15.892-3.025 21.942-9.073 12.096-12.098 12.096-31.783 0-43.88l-20.865-20.865 26.724-36.963c3.334-4.613 8.59-7.513 14.419-7.956 10.282-.784 19.964-5.235 27.266-12.535 8.452-8.454 13.057-20.159 12.632-32.113zm-319.48-155.735c0-9.511 5.11-18.387 13.337-23.162l13.383-7.768c9.653-5.603 15.649-16.018 15.649-27.179 0-6.023-1.718-11.888-4.969-16.959-2.743-4.206-6.491-9.276-6.175-14.561v-13.033c0-1.342 1.092-2.435 2.435-2.435h35.346c1.342 0 2.435 1.092 2.435 2.435v13.033c.321 5.276-3.437 10.366-6.175 14.561-3.251 5.071-4.969 10.936-4.969 16.959 0 11.161 5.996 21.576 15.649 27.179l13.383 7.768c9.897 5.535 14.294 16.78 13.337 27.75h-102.666zm-40.794 19.196h184.251c6.712 0 12.173 5.461 12.173 12.173v17.616h-141.205c-4.034 0-7.304 3.27-7.304 7.304s3.27 7.304 7.304 7.304h141.206v18.903c0 6.712-5.461 12.173-12.173 12.173h-184.252c-6.712 0-12.173-5.461-12.173-12.173v-18.903h33.182c4.034 0 7.304-3.27 7.304-7.304s-3.27-7.304-7.304-7.304h-33.182v-17.616c0-6.712 5.461-12.173 12.173-12.173zm104.581 241.544c-15.952 15.952-23.437 37.212-22.458 58.147h-37.6v-21.901h14.425c4.034 0 7.304-3.27 7.304-7.304s-3.27-7.304-7.304-7.304h-14.425v-23.778h30.494c4.034 0 7.304-3.27 7.304-7.304s-3.27-7.304-7.304-7.304h-30.494v-23.777h14.425c4.034 0 7.304-3.27 7.304-7.304s-3.27-7.304-7.304-7.304h-14.425v-23.778h30.494c4.034 0 7.304-3.27 7.304-7.304s-3.27-7.304-7.304-7.304h-30.494v-23.778h14.425c4.034 0 7.304-3.27 7.304-7.304s-3.27-7.304-7.304-7.304h-21.729c-4.034 0-7.304 3.27-7.304 7.304v182.748h-13.881c-15.574 0-28.244-12.67-28.244-28.245 0-4.07.666-8.087 1.979-11.939l19.207-56.331c2.965-8.696 2.965-18.274 0-26.97l-19.732-57.872c-.965-2.83-1.454-5.781-1.454-8.771 0-7.513 3.082-14.614 8.506-19.743 1.212.169 2.448.262 3.706.262h184.251c1.255 0 2.489-.093 3.699-.262 7.659 7.073 10.523 18.628 7.058 28.513l-9.429 27.654c-8.038.168-15.572 3.368-21.276 9.072-12.097 12.098-12.097 31.783 0 43.881l8.42 8.42c-3.573 3.359-6.44 7.464-8.115 11.831-22.396-1.635-44.029 6.353-60.029 22.353zm30.989 30.988c6.487-6.486 15.007-9.73 23.527-9.73s17.041 3.244 23.527 9.73c4.356 4.356 7.243 9.632 8.673 15.206-5.3 7.518-13.797 11.953-23.078 11.953h-42.174c-1.055-9.686 2.115-19.749 9.525-27.159zm23.527 56.781c-11.139.079-21.787-5.713-27.83-15.014h36.952c7.845 0 15.31-2.105 21.782-5.925-1.621 4.085-4.077 7.912-7.377 11.212-6.273 6.272-14.628 9.727-23.527 9.727zm77.315-56.158c-6.653 6.654-17.48 6.655-24.135 0l-30.276-30.276c-7.112-7.049-6.457-18.69 1.053-25.189l54.411 54.411zm53.353 7.366c-6.111 6.37-17.109 6.369-23.222 0h.001l-91.91-91.91c-3.102-3.101-4.81-7.225-4.81-11.611-.509-14.178 18.369-21.993 28.031-11.611l91.911 91.91c6.403 6.403 6.402 16.82-.001 23.222z"/></g></svg>