<?xml version="1.0"?>
<svg xmlns="http://www.w3.org/2000/svg" id="Outline" viewBox="0 0 512 512" width="512" height="512"><path d="M240,146.087V224H120a8,8,0,0,0-8,8v30.111L96.845,292.422A7.994,7.994,0,0,0,96,296V456a7.994,7.994,0,0,0,.845,3.578l16,32A8,8,0,0,0,120,496H248a8,8,0,0,0,7.155-4.422l.148-.3a31.942,31.942,0,0,0,41.586-7.19C304.228,491.351,315.448,496,328,496s23.772-4.649,31.111-11.908A31.988,31.988,0,0,0,416,464c0-.167,0-.333-.016-.5l-7.948-127.182,7.883-55.188A7.962,7.962,0,0,0,415.99,280H416V146.087a39.8,39.8,0,0,0-7.231-22.939L367.365,64H368a8,8,0,0,0,8-8V40a24.027,24.027,0,0,0-24-24H304a24.027,24.027,0,0,0-24,24V56a8,8,0,0,0,8,8h.635l-41.4,59.148A39.8,39.8,0,0,0,240,146.087ZM112,448V304h64.889C184.8,324.429,192,346.041,192,368c0,35.8-10.951,56.8-24.065,80Zm82.009-144h14.88C216.8,324.429,224,346.041,224,368c0,35.8-10.951,56.8-24.065,80H186.252C198.108,426.3,208,403.57,208,368,208,345.517,201.565,324.168,194.009,304Zm49.047,176H124.944l-8-16H251.056ZM384,480a16.019,16.019,0,0,1-16-16,8,8,0,0,0-16,0c0,8.673-10.991,16-24,16s-24-7.327-24-16a8,8,0,0,0-16,0,15.993,15.993,0,0,1-25.492,12.873l8.647-17.3A7.994,7.994,0,0,0,272,456V296a7.994,7.994,0,0,0-.845-3.578L268.944,288H398.776l-6.695,46.869a7.866,7.866,0,0,0-.065,1.63L400,464.225A16.019,16.019,0,0,1,384,480ZM296,40a8.009,8.009,0,0,1,8-8h48a8.009,8.009,0,0,1,8,8v8H296ZM256,146.087a23.884,23.884,0,0,1,4.338-13.763L308.165,64h39.67l47.827,68.324A23.884,23.884,0,0,1,400,146.087V160H256ZM256,232V176H400v96H260.944L256,262.111Zm0,216H218.252C230.108,426.3,240,403.57,240,368c0-22.483-6.435-43.832-13.991-64H256ZM116.944,288l8-16H200a8,8,0,0,0,0-16H128V240H240v16h-8a8,8,0,0,0,0,16h11.056l8,16Z"/></svg>
