<svg height="480pt" viewBox="0 0 480 480.00402" width="480pt" xmlns="http://www.w3.org/2000/svg"><path d="m476.214844 1.195312c-2.359375-1.457031-5.304688-1.589843-7.785156-.351562l-12.425782 6.214844-12.421875-6.214844c-2.25-1.125-4.902343-1.125-7.152343 0l-12.425782 6.214844-12.421875-6.214844c-2.25-1.125-4.902343-1.125-7.152343 0l-12.425782 6.214844-12.421875-6.214844c-2.25-1.125-4.902343-1.125-7.152343 0l-12.425782 6.214844-12.421875-6.214844c-2.25-1.125-4.902343-1.125-7.152343 0l-12.425782 6.214844-12.421875-6.214844c-2.25-1.125-4.902343-1.125-7.152343 0l-12.425782 6.214844-12.421875-6.214844c-2.25-1.125-4.902343-1.125-7.152343 0l-12.425782 6.214844-12.421875-6.214844c-2.25-1.125-4.902343-1.125-7.152343 0l-12.425782 6.214844-12.421875-6.214844c-2.25-1.125-4.902343-1.125-7.152343 0l-12.425782 6.214844-12.421875-6.214844c-2.25-1.125-4.902343-1.125-7.152343 0l-12.425782 6.214844-12.421875-6.214844c-2.25-1.125-4.902343-1.125-7.152343 0l-12.425782 6.214844-12.421875-6.214844c-2.480469-1.238281-5.425781-1.105469-7.785156.351562-2.359375 1.460938-3.792969 4.035157-3.792969 6.808594v48.054688c.027344.921875.210938 1.832031.546875 2.6875.085938.226562.167969.441406.269531.65625.070313.195312.144532.382812.234376.570312l30.949218 54.160156v204.175782l-6.398437 14.449218 14.625 6.492188 7.109375-16c.449218-1.023438.671875-2.128906.664062-3.246094v-208c.007813-1.402344-.355468-2.785156-1.054687-4l-25.160157-44h324.433594l-25.160156 44c-.699219 1.214844-1.0625 2.597656-1.058594 4v208c0 1.117188.234375 2.226563.691406 3.246094l27 60.753906h-27.691406v16h32v27.054688l-4.421875-2.214844c-2.25-1.125-4.902343-1.125-7.152343 0l-12.425782 6.214844-4.421875-2.214844-7.152343 14.320312 8 4c2.25 1.125 4.902343 1.125 7.152343 0l12.421875-6.214843 12.425782 6.214843c2.480468 1.238282 5.425781 1.105469 7.785156-.351562 2.359375-1.460938 3.792968-4.035156 3.789062-6.808594v-48c0-.121094-.0625-.222656-.070312-.335937-.027344-.878907-.199219-1.746094-.511719-2.566407-.039063-.089843-.046875-.1875-.082031-.265624v-.078126l-31.335938-70.449218v-204.175782l30.945313-54.128906c.085937-.183594.164062-.375.234375-.566406.101562-.21875.183594-.433594.269531-.65625.339844-.871094.527344-1.789062.550781-2.722656v-48.054688c.003906-2.773437-1.429687-5.347656-3.789062-6.808594zm-12.210938 46.808594h-336v-27.054687l4.425782 2.214843c2.25 1.125 4.902343 1.125 7.152343 0l12.421875-6.214843 12.425782 6.214843c2.25 1.125 4.902343 1.125 7.152343 0l12.421875-6.214843 12.425782 6.214843c2.25 1.125 4.902343 1.125 7.152343 0l12.421875-6.214843 12.425782 6.214843c2.25 1.125 4.902343 1.125 7.152343 0l12.421875-6.214843 12.425782 6.214843c2.25 1.125 4.902343 1.125 7.152343 0l12.421875-6.214843 12.425782 6.214843c2.25 1.125 4.902343 1.125 7.152343 0l12.421875-6.214843 12.425782 6.214843c2.25 1.125 4.902343 1.125 7.152343 0l12.421875-6.214843 12.425782 6.214843c2.25 1.125 4.902343 1.125 7.152343 0l12.421875-6.214843 12.425782 6.214843c2.25 1.125 4.902343 1.125 7.152343 0l12.421875-6.214843 12.425782 6.214843c2.25 1.125 4.902343 1.125 7.152343 0l12.421875-6.214843 12.425782 6.214843c2.25 1.125 4.902343 1.125 7.152343 0l4.421875-2.214843zm0 0"/><path d="m192.003906 320.003906c1.238282.011719 2.464844-.261718 3.578125-.800781l30.3125-15.199219h110.109375c39.746094-.046875 71.953125-32.253906 72-72v-96c.003906-2.773437-1.429687-5.347656-3.789062-6.808594-2.359375-1.457031-5.304688-1.589843-7.785156-.351562l-30.3125 15.160156h-110.113282c-39.742187.046875-71.949218 32.253906-72 72v96c0 4.417969 3.582032 8 8 8zm8-104c.035156-30.914062 25.089844-55.964844 56-56h112c1.242188 0 2.46875-.285156 3.578125-.839844l20.421875-10.214843v83.054687c-.035156 30.914063-25.085937 55.964844-56 56h-112c-1.234375-.011718-2.460937.261719-3.574218.800782l-20.425782 10.253906zm0 0"/><path d="m.847656 443.578125 6.214844 12.425781-6.214844 12.425782c-1.242187 2.480468-1.109375 5.425781.351563 7.78125 1.457031 2.359374 4.035156 3.792968 6.804687 3.792968h48c.113282 0 .210938-.0625.320313-.0625.820312-.039062 1.632812-.203125 2.402343-.488281.175782-.074219.351563-.113281.527344-.183594.175782-.074219.199219-.058593.296875-.105469l30.34375-15.160156h236.222657l30.3125 15.199219c.070312 0 .152343 0 .222656.046875 1.050781.496094 2.195312.753906 3.351562.753906h48c2.78125.015625 5.371094-1.414062 6.839844-3.773437 1.46875-2.363281 1.605469-5.316407.363281-7.800781l-6.257812-12.425782 6.214843-12.425781c1.125-2.25 1.125-4.898437 0-7.148437l-6.214843-12.425782 6.214843-12.425781c1.125-2.25 1.125-4.898437 0-7.148437l-6.214843-12.425782 6.214843-12.425781c1.125-2.25 1.125-4.898437 0-7.148437l-6.214843-12.425782 6.214843-12.425781c1.242188-2.480469 1.109376-5.425781-.351562-7.78125-1.457031-2.359375-4.035156-3.792969-6.808594-3.792969h-48c-.109375 0-.207031.0625-.324218.0625-.824219.039063-1.632813.203125-2.402344.488282-.183594.074218-.359375.113281-.535156.183593-.175782.074219-.199219.058594-.296876.105469l-30.328124 15.160156h-236.222657l-30.3125-15.199218c-.097656-.046876-.199219-.058594-.296875-.105469-.09375-.046875-.351562-.109375-.535156-.183594-.769531-.285156-1.578125-.453125-2.398438-.488281-.136718.039062-.234374-.023438-.347656-.023438h-48c-2.769531 0-5.347656 1.433594-6.804687 3.792969-1.460938 2.355469-1.59375 5.300781-.351563 7.78125l6.214844 12.425781-6.214844 12.425782c-1.125 2.25-1.125 4.898437 0 7.148437l6.214844 12.425781-6.214844 12.425782c-1.125 2.25-1.125 4.898437 0 7.148437l6.214844 12.425781-6.214844 12.425782c-1.125 2.25-1.125 4.898437 0 7.148437zm367.15625-91.574219h27.058594l-2.214844 4.425782c-1.125 2.25-1.125 4.898437 0 7.148437l6.214844 12.425781-6.214844 12.425782c-1.125 2.25-1.125 4.898437 0 7.148437l6.214844 12.425781-6.214844 12.425782c-1.125 2.25-1.125 4.898437 0 7.148437l6.214844 12.425781-6.214844 12.425782c-1.125 2.25-1.125 4.898437 0 7.148437l2.214844 4.425781h-27.058594zm-304 4.945313 20.425782 10.253906c1.113281.539063 2.339843.8125 3.574218.800781h240c1.238282.011719 2.464844-.261718 3.578125-.800781l20.421875-10.253906v102.109375l-20.421875-10.214844c-1.109375-.554688-2.335937-.839844-3.578125-.839844h-240c-1.234375-.011718-2.460937.261719-3.574218.800782l-20.425782 10.253906zm-40.839844 63.480469-6.214843-12.425782 6.214843-12.425781c1.125-2.25 1.125-4.898437 0-7.148437l-6.214843-12.425782 6.214843-12.425781c1.125-2.25 1.125-4.898437 0-7.148437l-2.214843-4.425782h27.054687v112h-27.054687l2.214843-4.425781c1.125-2.25 1.125-4.898437 0-7.148437l-6.214843-12.425782 6.214843-12.425781c1.125-2.25 1.125-4.898437 0-7.148437zm0 0"/><path d="m112.003906 432.003906h192c4.421875 0 8-3.582031 8-8v-32c0-4.417968-3.578125-8-8-8h-192c-4.417968 0-8 3.582032-8 8v32c0 4.417969 3.582032 8 8 8zm8-32h176v16h-176zm0 0"/></svg>